<svg width="20" height="20" viewBox="0 0 20 20" fill="none" xmlns="http://www.w3.org/2000/svg">
<path d="M8.54931 0C13.2711 0 17.0993 3.82753 17.0993 8.5493C17.0993 10.227 16.6162 11.792 15.7812 13.1125C15.7874 13.1151 15.7934 13.1175 15.7995 13.1203L19.5197 16.8398L16.3595 20L12.5054 16.1452C12.5065 16.1398 12.5081 16.1343 12.5093 16.1289C11.3254 16.7487 9.97821 17.0993 8.5493 17.0993C3.82748 17.0993 -1.90735e-05 13.2711 -1.90735e-05 8.54933C3.05176e-05 3.82753 3.82755 0 8.54931 0ZM8.54931 3.79795C5.9253 3.79795 3.79863 5.92527 3.79863 8.5493C3.79863 11.1733 5.9253 13.3006 8.54931 13.3006C11.1733 13.3006 13.3007 11.1733 13.3007 8.5493C13.3007 5.92527 11.1734 3.79795 8.54931 3.79795Z" fill="black"/>
</svg>
